<?xml version="1.0" encoding="UTF-8" standalone="no"?>
<svg
   xmlns:dc="http://purl.org/dc/elements/1.1/"
   xmlns:cc="http://creativecommons.org/ns#"
   xmlns:rdf="http://www.w3.org/1999/02/22-rdf-syntax-ns#"
   xmlns:svg="http://www.w3.org/2000/svg"
   xmlns="http://www.w3.org/2000/svg"
   xmlns:sodipodi="http://sodipodi.sourceforge.net/DTD/sodipodi-0.dtd"
   xmlns:inkscape="http://www.inkscape.org/namespaces/inkscape"
   viewBox="0 0 44.937256 60.629307"
   version="1.1"
   id="svg5"
   sodipodi:docname="ring1.svg"
   width="44.937256"
   height="60.629307"
   inkscape:version="0.92.3 (2405546, 2018-03-11)">
  <metadata
     id="metadata11">
    <rdf:RDF>
      <cc:Work
         rdf:about="">
        <dc:format>image/svg+xml</dc:format>
        <dc:type
           rdf:resource="http://purl.org/dc/dcmitype/StillImage" />
        <dc:title></dc:title>
      </cc:Work>
    </rdf:RDF>
  </metadata>
  <defs
     id="defs9" />
  <sodipodi:namedview
     pagecolor="#ffffff"
     bordercolor="#666666"
     borderopacity="1"
     objecttolerance="10"
     gridtolerance="10"
     guidetolerance="10"
     inkscape:pageopacity="0"
     inkscape:pageshadow="2"
     inkscape:window-width="1920"
     inkscape:window-height="1057"
     id="namedview7"
     showgrid="false"
     fit-margin-top="0"
     fit-margin-left="0"
     fit-margin-right="0"
     fit-margin-bottom="0"
     inkscape:zoom="9.44"
     inkscape:cx="12.750469"
     inkscape:cy="27.174614"
     inkscape:window-x="-8"
     inkscape:window-y="-8"
     inkscape:window-maximized="1"
     inkscape:current-layer="surface1" />
  <g
     id="surface1"
     transform="translate(-3.002252,-3.002252)">
    <path
       d="M 34.800781,3.007813 C 32.980469,3.066406 30.941406,3.617188 28.746094,4.5625 24.359375,6.460938 19.359375,9.96875 14.664063,14.664063 9.96875,19.359375 6.464844,24.359375 4.566406,28.746094 c -0.949218,2.195312 -1.5,4.234375 -1.558593,6.054687 C 2.945313,36.625 3.40625,38.28125 4.5625,39.4375 5.65625,40.53125 10.175781,45 10.175781,45 c 0.121094,0.152344 0.25,0.300781 0.386719,0.4375 1.15625,1.15625 2.8125,1.617188 4.636719,1.558594 1.820312,-0.05859 3.863281,-0.613281 6.054687,-1.558594 4.390625,-1.898437 9.386719,-5.40625 14.082032,-10.105469 4.695312,-4.695312 8.199218,-9.691406 10.097656,-14.078125 0.949219,-2.195312 1.5,-4.234375 1.5625,-6.054687 C 47.054688,13.375 46.59375,11.71875 45.4375,10.5625 45.332031,10.457031 45.214844,10.359375 45.097656,10.265625 L 45.113281,10.25 c 0,0 -4.59375,-4.605469 -5.675781,-5.6875 C 38.28125,3.40625 36.625,2.945313 34.800781,3.007813 Z m 0.06641,1.996093 c 1.457031,-0.046875 2.480468,0.296875 3.15625,0.972657 0.574218,0.574218 1.679687,1.683593 3.023437,3.03125 -0.08203,0 -0.160156,-0.00781 -0.246094,-0.00391 -1.820315,0.058597 -3.863284,0.613285 -6.05469,1.558597 -4.390625,1.898438 -9.386719,5.40625 -14.082031,10.105469 -4.695313,4.695312 -8.199219,9.691406 -10.097657,14.078125 -0.949218,2.195312 -1.5,4.234375 -1.558593,6.054687 -0.00391,0.07813 0,0.148438 0,0.222657 -1.34375,-1.324219 -2.453125,-2.421875 -3.03125,-3 C 5.300781,37.347656 4.957031,36.324219 5.003906,34.867188 5.050781,33.410156 5.519531,31.574219 6.398438,29.539063 8.160156,25.472656 11.535156,20.621094 16.078125,16.078125 20.625,11.535156 25.472656,8.160156 29.539063,6.398438 31.574219,5.519531 33.410156,5.050781 34.867188,5.003906 Z m -4.16016,3.214844 c -0.367187,0.00391 -0.765625,0.089844 -1.148437,0.242188 -1.050781,0.429687 -1.703125,1.269531 -1.453125,1.882812 0.246094,0.613281 1.300781,0.761719 2.351562,0.335938 C 31.507813,10.253906 32.15625,9.410156 31.910156,8.796875 31.761719,8.433594 31.3125,8.214844 30.707031,8.21875 Z m 7.9375,3.125 c -1.097656,4.472656 -4.9375,10.789063 -10.722656,16.578125 -5.785156,5.785156 -12.105469,9.621094 -16.578125,10.722656 0.234375,-0.960937 0.578125,-2 1.058594,-3.105468 1.757812,-4.066407 5.132812,-8.914063 9.675781,-13.460938 4.546875,-4.542969 9.394531,-7.917969 13.460938,-9.675781 1.105468,-0.480469 2.144531,-0.828125 3.105468,-1.058594 z m -18.5625,4.042969 c -0.839843,0.05859 -1.996093,0.714844 -2.988281,1.707031 -1.453125,1.457031 -2.109375,3.160156 -1.460937,3.8125 0.648437,0.648438 2.355468,-0.0078 3.808593,-1.464844 1.457032,-1.457031 2.109375,-3.160156 1.464844,-3.808593 -0.1875,-0.183594 -0.46875,-0.269532 -0.824219,-0.246094 z M 9.882813,27.875 C 9.3125,27.863281 8.625,28.425781 8.210938,29.25 c -0.511719,1.011719 -0.445313,2.074219 0.144531,2.375 0.589844,0.296875 1.480469,-0.285156 1.992187,-1.296875 0.511719,-1.011719 0.445313,-2.074219 -0.144531,-2.375 C 10.105469,27.90625 10,27.878906 9.882813,27.875 Z"
       id="path2"
       inkscape:connector-curvature="0" />
    <path
       style="opacity:1;fill:#ffffff;fill-opacity:1;stroke:#ffffff;stroke-width:1.09761429;stroke-miterlimit:4;stroke-dasharray:none;stroke-opacity:1"
       id="path824"
       sodipodi:type="arc"
       sodipodi:cx="22.505123"
       sodipodi:cy="30.684776"
       sodipodi:rx="3.9562993"
       sodipodi:ry="2.3834746"
       sodipodi:start="0"
       sodipodi:end="6.2647895"
       d="m 26.461422,30.684776 a 3.9562993,2.3834746 0 0 1 -3.938104,2.38345 3.9562993,2.3834746 0 0 1 -3.974327,-2.361527 3.9562993,2.3834746 0 0 1 3.901549,-2.40517 3.9562993,2.3834746 0 0 1 4.010213,2.339404"
       sodipodi:open="true"
       transform="matrix(0.83004289,-0.55769956,0,1,0,0)" />
    <path
       style="opacity:1;fill:#ffffff;fill-opacity:1;stroke:#ffffff;stroke-width:0.95067769;stroke-miterlimit:4;stroke-dasharray:none;stroke-opacity:1"
       id="path824-4"
       sodipodi:type="arc"
       sodipodi:cx="35.000534"
       sodipodi:cy="28.690844"
       sodipodi:rx="3.5096195"
       sodipodi:ry="2.0156109"
       sodipodi:start="0"
       sodipodi:end="6.2647895"
       d="m 38.510154,28.690844 a 3.5096195,2.0156109 0 0 1 -3.493479,2.015589 3.5096195,2.0156109 0 0 1 -3.525612,-1.99705 3.5096195,2.0156109 0 0 1 3.461051,-2.033959 3.5096195,2.0156109 0 0 1 3.557446,1.978343"
       sodipodi:open="true"
       transform="matrix(0.84696431,-0.53164974,0,1,0,0)" />
    <path
       style="opacity:1;fill:#ffffff;fill-opacity:1;stroke:#ffffff;stroke-width:1.09761429;stroke-miterlimit:4;stroke-dasharray:none;stroke-opacity:1"
       id="path824-6"
       sodipodi:type="arc"
       sodipodi:cx="11.657207"
       sodipodi:cy="36.446327"
       sodipodi:rx="3.9562993"
       sodipodi:ry="2.3834746"
       sodipodi:start="0"
       sodipodi:end="6.2647895"
       d="m 15.613506,36.446327 a 3.9562993,2.3834746 0 0 1 -3.938105,2.38345 3.9562993,2.3834746 0 0 1 -3.9743264,-2.361527 3.9562993,2.3834746 0 0 1 3.9015494,-2.405171 3.9562993,2.3834746 0 0 1 4.010212,2.339405"
       sodipodi:open="true"
       transform="matrix(0.83004289,-0.55769956,0,1,0,0)" />
  </g>
  <text
     xml:space="preserve"
     style="font-style:normal;font-variant:normal;font-weight:bold;font-stretch:normal;font-size:13.33333302px;line-height:1.25;font-family:Bahnschrift;-inkscape-font-specification:'Bahnschrift Bold';letter-spacing:0px;word-spacing:0px;fill:#000000;fill-opacity:1;stroke:none"
     x="-0.45987916"
     y="60.531651"
     id="text820"><tspan
       sodipodi:role="line"
       id="tspan818"
       x="-0.45987916"
       y="60.531651">0.260 кг</tspan></text>
</svg>
